<?xml version="1.0" encoding="utf-8"?>
<!-- Generator: Adobe Illustrator 16.0.0, SVG Export Plug-In . SVG Version: 6.00 Build 0)  -->
<!DOCTYPE svg PUBLIC "-//W3C//DTD SVG 1.1//EN" "http://www.w3.org/Graphics/SVG/1.1/DTD/svg11.dtd">
<svg version="1.1" id="Layer_1" xmlns="http://www.w3.org/2000/svg" xmlns:xlink="http://www.w3.org/1999/xlink" x="0px" y="0px"
	 width="128px" height="128px" viewBox="0 0 128 128" enable-background="new 0 0 128 128" xml:space="preserve">
<g>
	<g>
		<g>
			<path fill="#282D33" d="M91.923,128H36.074c-3.302,0-5.988-2.664-5.988-5.938V53.169h4v68.893c0,1.068,0.892,1.938,1.988,1.938
				h55.849c1.098,0,1.99-0.869,1.99-1.938V53.169h4v68.893C97.913,125.336,95.226,128,91.923,128z"/>
		</g>
		<g>
			<path fill="#282D33" d="M97.914,25.542h-4V5.936c0-1.067-0.893-1.936-1.99-1.936H36.075c-1.096,0-1.988,0.869-1.988,1.936v19.606
				h-4V5.936C30.087,2.663,32.773,0,36.075,0h55.849c3.303,0,5.99,2.663,5.99,5.936V25.542z"/>
		</g>
		<g>
			<rect x="33.227" y="105.002" fill="#282D33" width="61.543" height="4"/>
		</g>
		<g>
			<g>
				<rect x="53.337" y="8.792" fill="#282D33" width="21.326" height="4"/>
			</g>
		</g>
		<g>
			<rect x="61.397" y="113.734" fill="#282D33" width="5.208" height="4"/>
		</g>
	</g>
	<g>
		<polygon fill="#282D33" points="101.653,37.404 91.823,22.015 36.175,22.015 26.347,37.404 22.976,35.251 33.983,18.015 
			94.015,18.015 105.024,35.251 		"/>
	</g>
	<g>
		<g>
			<path fill="#282D33" d="M100.381,40.071v4.349c0,4.117-3.494,7.457-7.798,7.457c-3.2,0-5.943-1.844-7.145-4.479
				c-1.203,2.635-3.951,4.479-7.146,4.479c-3.2,0-5.947-1.844-7.145-4.479c-1.205,2.635-3.951,4.479-7.146,4.479
				c-3.2,0-5.946-1.844-7.149-4.479c-1.2,2.635-3.947,4.479-7.145,4.479c-3.199,0-5.943-1.844-7.146-4.479
				c-1.204,2.635-3.947,4.479-7.145,4.479c-4.308,0-7.795-3.339-7.795-7.457v-4.349H100.381 M104.317,36.135h-3.938H27.622h-3.937
				v3.938v4.349c0,6.282,5.263,11.393,11.731,11.393c2.636,0,5.134-0.861,7.145-2.361c2.012,1.5,4.51,2.361,7.146,2.361
				c2.636,0,5.135-0.86,7.146-2.36c2.013,1.5,4.511,2.36,7.148,2.36c2.633,0,5.131-0.86,7.143-2.359
				c2.01,1.5,4.51,2.359,7.147,2.359c2.635,0,5.134-0.86,7.146-2.36c2.01,1.5,4.51,2.36,7.146,2.36
				c6.47,0,11.733-5.111,11.733-11.393v-4.349v-3.938H104.317z"/>
		</g>
	</g>
</g>
</svg>
