<?xml version="1.0" encoding="UTF-8" standalone="no"?>
<!-- Generator: Adobe Illustrator 16.0.0, SVG Export Plug-In . SVG Version: 6.00 Build 0)  -->

<svg
   version="1.1"
   id="Layer_1"
   x="0px"
   y="0px"
   width="128px"
   height="128px"
   viewBox="0 0 128 128"
   enable-background="new 0 0 128 128"
   xml:space="preserve"
   sodipodi:docname="end-to-end-ecommerce-support.svg"
   inkscape:version="1.1.2 (0a00cf5339, 2022-02-04)"
   xmlns:inkscape="http://www.inkscape.org/namespaces/inkscape"
   xmlns:sodipodi="http://sodipodi.sourceforge.net/DTD/sodipodi-0.dtd"
   xmlns="http://www.w3.org/2000/svg"
   xmlns:svg="http://www.w3.org/2000/svg"><defs
   id="defs85" /><sodipodi:namedview
   id="namedview83"
   pagecolor="#ffffff"
   bordercolor="#666666"
   borderopacity="1.0"
   inkscape:pageshadow="2"
   inkscape:pageopacity="0.0"
   inkscape:pagecheckerboard="0"
   showgrid="false"
   inkscape:zoom="4.3203125"
   inkscape:cx="64.115732"
   inkscape:cy="64"
   inkscape:window-width="1366"
   inkscape:window-height="699"
   inkscape:window-x="0"
   inkscape:window-y="0"
   inkscape:window-maximized="1"
   inkscape:current-layer="Layer_1" />
<g
   id="g80"
   style="fill:#000000;fill-opacity:1">
	<g
   id="g56"
   style="fill:#000000;fill-opacity:1">
		<g
   id="g54"
   style="fill:#000000;fill-opacity:1">
			<g
   id="g24"
   style="fill:#000000;fill-opacity:1">
				<g
   id="g4"
   style="fill:#000000;fill-opacity:1">
					<path
   fill="#282D33"
   d="M72.881,128H17.107c-3.298,0-5.982-2.663-5.982-5.938V5.936C11.125,2.663,13.809,0,17.107,0h55.773       c3.297,0,5.979,2.663,5.979,5.936v15.468h-4V5.936C74.859,4.869,73.971,4,72.881,4H17.107c-1.093,0-1.982,0.869-1.982,1.936       v116.126c0,1.068,0.889,1.938,1.982,1.938h55.773c1.092,0,1.98-0.869,1.98-1.938V94.82h4v27.242       C78.861,125.337,76.178,128,72.881,128z"
   id="path2"
   style="fill:#000000;fill-opacity:1" />
				</g>
				<g
   id="g8"
   style="fill:#000000;fill-opacity:1">
					<rect
   x="20.013"
   y="105.645"
   fill="#282D33"
   width="49.96"
   height="4"
   id="rect6"
   style="fill:#000000;fill-opacity:1" />
				</g>
				<g
   id="g12"
   style="fill:#000000;fill-opacity:1">
					<rect
   x="20.013"
   y="17.372"
   fill="#282D33"
   width="49.96"
   height="4"
   id="rect10"
   style="fill:#000000;fill-opacity:1" />
				</g>
				<g
   id="g18"
   style="fill:#000000;fill-opacity:1">
					<g
   id="g16"
   style="fill:#000000;fill-opacity:1">
						<rect
   x="34.348"
   y="8.793"
   fill="#282D33"
   width="21.293"
   height="4"
   id="rect14"
   style="fill:#000000;fill-opacity:1" />
					</g>
				</g>
				<g
   id="g22"
   style="fill:#000000;fill-opacity:1">
					<rect
   x="42.394"
   y="113.734"
   fill="#282D33"
   width="5.201"
   height="4"
   id="rect20"
   style="fill:#000000;fill-opacity:1" />
				</g>
			</g>
			<g
   id="g52"
   style="fill:#000000;fill-opacity:1">
				<g
   id="g36"
   style="fill:#000000;fill-opacity:1">
					<g
   id="g34"
   style="fill:#000000;fill-opacity:1">
						<g
   id="g32"
   style="fill:#000000;fill-opacity:1">
							<g
   id="g30"
   style="fill:#000000;fill-opacity:1">
								<g
   id="g28"
   style="fill:#000000;fill-opacity:1">
									<path
   fill="#282D33"
   d="M39.969,96.911l4.973-15.072c-5.745-7.071-8.896-15.896-8.896-24.978           c0-22.037,18.131-39.965,40.418-39.965v4c-20.082,0-36.418,16.134-36.418,35.965c0,8.503,3.075,16.758,8.659,23.244           l0.738,0.857l-2.79,8.455l8.06-3.723l0.939,0.647c6.145,4.238,13.342,6.479,20.813,6.479           c20.076,0,36.41-16.132,36.41-35.959h4c0,22.034-18.129,39.959-40.41,39.959c-7.902,0-15.527-2.26-22.128-6.546           L39.969,96.911z"
   id="path26"
   style="fill:#000000;fill-opacity:1" />
								</g>
							</g>
						</g>
					</g>
				</g>
				<g
   id="g50"
   style="fill:#000000;fill-opacity:1">
					<g
   id="g40"
   style="fill:#000000;fill-opacity:1">
						<path
   fill="#282D33"
   d="M116.875,56.861h-4c0-0.625-0.018-1.247-0.049-1.863l3.994-0.21        C116.855,55.474,116.875,56.166,116.875,56.861z"
   id="path38"
   style="fill:#000000;fill-opacity:1" />
					</g>
					<g
   id="g44"
   style="fill:#000000;fill-opacity:1">
						<path
   fill="#282D33"
   d="M112.467,51.476c-0.18-1.185-0.422-2.369-0.719-3.519l3.873-1.001c0.332,1.281,0.602,2.6,0.801,3.919        L112.467,51.476z M110.676,44.528c-0.412-1.118-0.889-2.229-1.414-3.303l3.594-1.757c0.584,1.194,1.113,2.43,1.572,3.673        L110.676,44.528z M107.523,38.081c-0.631-1.015-1.318-2.009-2.045-2.955l3.17-2.438c0.809,1.051,1.572,2.156,2.273,3.284        L107.523,38.081z M103.146,32.389c-0.816-0.868-1.688-1.708-2.59-2.495l2.631-3.014c1,0.873,1.967,1.804,2.873,2.768        L103.146,32.389z M97.734,27.666c-0.973-0.692-1.992-1.345-3.027-1.938l1.988-3.471c1.15,0.659,2.279,1.383,3.359,2.151        L97.734,27.666z M91.502,24.097c-1.09-0.489-2.217-0.929-3.35-1.308l1.27-3.793c1.258,0.42,2.508,0.909,3.717,1.452        L91.502,24.097z M84.691,21.818c-1.164-0.265-2.355-0.476-3.543-0.627l0.504-3.968c1.316,0.167,2.639,0.401,3.928,0.694        L84.691,21.818z"
   id="path42"
   style="fill:#000000;fill-opacity:1" />
					</g>
					<g
   id="g48"
   style="fill:#000000;fill-opacity:1">
						<path
   fill="#282D33"
   d="M78.332,20.942c-0.617-0.031-1.24-0.046-1.867-0.046v-4c0.695,0,1.385,0.017,2.068,0.051        L78.332,20.942z"
   id="path46"
   style="fill:#000000;fill-opacity:1" />
					</g>
				</g>
			</g>
		</g>
	</g>
	<g
   id="g78"
   style="fill:#000000;fill-opacity:1">
		<g
   id="g60"
   style="fill:#000000;fill-opacity:1">
			<path
   fill="#282D33"
   d="M63.245,79.547c-3.821,0-6.93-3.082-6.93-6.87c0-3.789,3.109-6.872,6.93-6.872     c3.822,0,6.929,3.083,6.929,6.872C70.174,76.465,67.066,79.547,63.245,79.547z M63.245,69.805c-1.616,0-2.93,1.288-2.93,2.872     c0,1.583,1.314,2.87,2.93,2.87c1.615,0,2.929-1.287,2.929-2.87C66.174,71.093,64.859,69.805,63.245,69.805z"
   id="path58"
   style="fill:#000000;fill-opacity:1" />
		</g>
		<g
   id="g64"
   style="fill:#000000;fill-opacity:1">
			<path
   fill="#282D33"
   d="M87.697,79.547c-3.822,0-6.932-3.082-6.932-6.87s3.109-6.87,6.932-6.87s6.932,3.082,6.932,6.87     S91.52,79.547,87.697,79.547z M87.697,69.807c-1.617,0-2.932,1.287-2.932,2.87s1.314,2.87,2.932,2.87s2.932-1.287,2.932-2.87     S89.314,69.807,87.697,69.807z"
   id="path62"
   style="fill:#000000;fill-opacity:1" />
		</g>
		<g
   id="g68"
   style="fill:#000000;fill-opacity:1">
			<rect
   x="68.873"
   y="70.677"
   fill="#282D33"
   width="13.893"
   height="4"
   id="rect66"
   style="fill:#000000;fill-opacity:1" />
		</g>
		<g
   id="g72"
   style="fill:#000000;fill-opacity:1">
			<polygon
   fill="#282D33"
   points="65.939,68.261 62.123,67.062 63.357,63.135 56.167,41.833 50.557,40.253 51.641,36.403      59.282,38.555 67.564,63.091    "
   id="polygon70"
   style="fill:#000000;fill-opacity:1" />
		</g>
		<g
   id="g76"
   style="fill:#000000;fill-opacity:1">
			<path
   fill="#282D33"
   d="M93.217,65.112H63.996l-6.637-20.939h44.57l-5.15,17.798C96.609,63.758,95.105,65.112,93.217,65.112z      M66.924,61.113l25.951-0.037l3.732-12.903H62.823L66.924,61.113z"
   id="path74"
   style="fill:#000000;fill-opacity:1" />
		</g>
	</g>
</g>
</svg>
