<?xml version="1.0" encoding="UTF-8" standalone="no"?>
<!-- Generator: Adobe Illustrator 16.0.0, SVG Export Plug-In . SVG Version: 6.00 Build 0)  -->

<svg
   version="1.1"
   id="Layer_1"
   x="0px"
   y="0px"
   width="128px"
   height="128px"
   viewBox="0 0 128 128"
   enable-background="new 0 0 128 128"
   xml:space="preserve"
   sodipodi:docname="tailored-insights-for-local-markets.svg"
   inkscape:version="1.1.2 (0a00cf5339, 2022-02-04)"
   xmlns:inkscape="http://www.inkscape.org/namespaces/inkscape"
   xmlns:sodipodi="http://sodipodi.sourceforge.net/DTD/sodipodi-0.dtd"
   xmlns="http://www.w3.org/2000/svg"
   xmlns:svg="http://www.w3.org/2000/svg"><defs
   id="defs33" /><sodipodi:namedview
   id="namedview31"
   pagecolor="#ffffff"
   bordercolor="#666666"
   borderopacity="1.0"
   inkscape:pageshadow="2"
   inkscape:pageopacity="0.0"
   inkscape:pagecheckerboard="0"
   showgrid="false"
   inkscape:zoom="4.3203125"
   inkscape:cx="64.115732"
   inkscape:cy="64"
   inkscape:window-width="1366"
   inkscape:window-height="699"
   inkscape:window-x="0"
   inkscape:window-y="0"
   inkscape:window-maximized="1"
   inkscape:current-layer="Layer_1" />
<g
   id="g28"
   style="fill:#000000;fill-opacity:1">
	<g
   id="g10"
   style="fill:#000000;fill-opacity:1">
		<g
   id="g4"
   style="fill:#000000;fill-opacity:1">
			<path
   fill="#282D33"
   d="M64,84.646c-18.945,0-34.358-15.26-34.358-34.016S45.055,16.615,64,16.615s34.358,15.26,34.358,34.016     S82.945,84.646,64,84.646z M64,20.597c-16.75,0-30.377,13.473-30.377,30.034S47.25,80.666,64,80.666     c16.75,0,30.377-13.474,30.377-30.035S80.75,20.597,64,20.597z"
   id="path2"
   style="fill:#000000;fill-opacity:1" />
		</g>
		<g
   id="g8"
   style="fill:#000000;fill-opacity:1">
			<path
   fill="#282D33"
   d="M64.002,128l-1.283-1.083c-2.146-1.811-52.573-44.678-52.573-73.623C10.146,23.907,34.306,0,64.002,0     c29.694,0,53.853,23.907,53.853,53.294c0,28.945-50.423,71.813-52.568,73.623L64.002,128z M64.002,3.98     c-27.501,0-49.875,22.122-49.875,49.313c0,24.674,41.938,62.53,49.875,69.471c7.936-6.942,49.871-44.807,49.871-69.471     C113.873,26.103,91.501,3.98,64.002,3.98z"
   id="path6"
   style="fill:#000000;fill-opacity:1" />
		</g>
	</g>
	<g
   id="g26"
   style="fill:#000000;fill-opacity:1">
		<g
   id="g14"
   style="fill:#000000;fill-opacity:1">
			
				<rect
   x="61.719"
   y="30.352"
   transform="matrix(0.8312 0.556 -0.556 0.8312 38.9188 -26.8717)"
   fill="#282D33"
   width="3.982"
   height="40.602"
   id="rect12"
   style="fill:#000000;fill-opacity:1" />
		</g>
		<g
   id="g24"
   style="fill:#000000;fill-opacity:1">
			<g
   id="g18"
   style="fill:#000000;fill-opacity:1">
				<path
   fill="#282D33"
   d="M53.455,52.546c-3.808,0-6.906-3.073-6.906-6.85v-6.633c0-3.777,3.098-6.85,6.906-6.85      c3.808,0,6.907,3.072,6.907,6.85v6.633C60.361,49.473,57.263,52.546,53.455,52.546z M53.455,36.194      c-1.613,0-2.925,1.287-2.925,2.869v6.633c0,1.582,1.312,2.868,2.925,2.868c1.613,0,2.926-1.286,2.926-2.868v-6.633      C56.38,37.481,55.068,36.194,53.455,36.194z"
   id="path16"
   style="fill:#000000;fill-opacity:1" />
			</g>
			<g
   id="g22"
   style="fill:#000000;fill-opacity:1">
				<path
   fill="#282D33"
   d="M73.96,69.092c-3.806,0-6.902-3.073-6.902-6.85v-6.629c0-3.778,3.097-6.853,6.902-6.853      c3.809,0,6.907,3.074,6.907,6.853v6.629C80.867,66.019,77.769,69.092,73.96,69.092z M73.96,52.742      c-1.611,0-2.922,1.287-2.922,2.871v6.629c0,1.582,1.311,2.869,2.922,2.869c1.613,0,2.926-1.287,2.926-2.869v-6.629      C76.886,54.029,75.573,52.742,73.96,52.742z"
   id="path20"
   style="fill:#000000;fill-opacity:1" />
			</g>
		</g>
	</g>
</g>
</svg>
