<?xml version="1.0" encoding="UTF-8" standalone="no"?>
<!-- Created with Inkscape (http://www.inkscape.org/) -->

<svg
   width="154.00099"
   height="154.00098"
   viewBox="0 0 40.746095 40.746093"
   version="1.1"
   id="svg5"
   inkscape:version="1.1.2 (0a00cf5339, 2022-02-04)"
   sodipodi:docname="favicon-raw (copy 1).svg"
   xmlns:inkscape="http://www.inkscape.org/namespaces/inkscape"
   xmlns:sodipodi="http://sodipodi.sourceforge.net/DTD/sodipodi-0.dtd"
   xmlns="http://www.w3.org/2000/svg"
   xmlns:svg="http://www.w3.org/2000/svg">
  <sodipodi:namedview
     id="namedview7"
     pagecolor="#ffffff"
     bordercolor="#666666"
     borderopacity="1.0"
     inkscape:pageshadow="2"
     inkscape:pageopacity="0.0"
     inkscape:pagecheckerboard="false"
     inkscape:document-units="px"
     showgrid="false"
     showborder="true"
     units="px"
     inkscape:snap-midpoints="true"
     inkscape:snap-smooth-nodes="true"
     inkscape:snap-intersection-paths="true"
     inkscape:object-paths="true"
     inkscape:snap-bbox="true"
     inkscape:snap-bbox-midpoints="true"
     inkscape:snap-bbox-edge-midpoints="true"
     inkscape:bbox-nodes="true"
     inkscape:snap-others="false"
     inkscape:zoom="1"
     inkscape:cx="-219"
     inkscape:cy="81.5"
     inkscape:window-width="1366"
     inkscape:window-height="699"
     inkscape:window-x="0"
     inkscape:window-y="0"
     inkscape:window-maximized="1"
     inkscape:current-layer="layer1"
     fit-margin-top="0"
     fit-margin-left="0"
     fit-margin-right="0"
     fit-margin-bottom="0" />
  <defs
     id="defs2" />
  <g
     inkscape:label="Layer 1"
     inkscape:groupmode="layer"
     id="layer1"
     transform="translate(-91.954375,-113.38916)">
    <path
       id="path1428"
       style="color:#000000;fill:#04395e;fill-opacity:1;stroke-linecap:square;-inkscape-stroke:none"
       d="m 106.52664,127.96143 v 0.52929 5.27149 c 0,1.53805 0.61088,3.01432 1.69922,4.10159 1.08724,1.08833 2.56351,1.69918 4.10156,1.69918 h 5.80078 v -5.80078 c 0,-1.53805 -0.61087,-3.01432 -1.69922,-4.10157 -1.08724,-1.08834 -2.56351,-1.69921 -4.10156,-1.69921 z m 1.05859,1.05861 h 4.74219 c 1.25795,0 2.46476,0.49902 3.35352,1.38865 0.88965,0.88876 1.38867,2.09559 1.38867,3.35352 v 4.74218 h -4.74219 c -1.25795,0 -2.46281,-0.49901 -3.35156,-1.38867 h -0.002 v -0.002 c -0.88966,-0.88875 -1.38868,-2.09361 -1.38868,-3.35156 z m -5.91601,-5.91507 v 0.52932 10.12889 c 0,2.82613 1.12399,5.5361 3.12305,7.53515 1.99817,1.99818 4.70902,3.1211 7.53515,3.1211 h 10.65821 v -10.65625 c 0,-2.82614 -1.12186,-5.53893 -3.1211,-7.53711 -1.99818,-1.99924 -4.71097,-3.1211 -7.53711,-3.1211 z m 1.05859,1.05861 h 9.59961 c 2.54586,0 4.9873,1.00979 6.78711,2.81054 v 0.002 h 0.002 c 1.80076,1.79982 2.81055,4.24126 2.81055,6.78712 v 9.59961 h -9.59961 c -2.54586,0 -4.98728,-1.01268 -6.78711,-2.8125 -1.80094,-1.80094 -2.8125,-4.24125 -2.8125,-6.78711 z m -5.916015,-5.917 v 0.5293 14.98633 c 0,4.11416 1.63589,8.06063 4.544925,10.9707 2.91002,2.90899 6.85557,4.54492 10.9707,4.54492 h 15.51563 v -15.51562 c 0,-4.11513 -1.63581,-8.06159 -4.54492,-10.97071 -2.91003,-2.90899 -6.85558,-4.54492 -10.97071,-4.54492 z m 1.05859,1.0586 h 14.457035 c 3.83486,0 7.51069,1.52337 10.22266,4.23437 2.71088,2.71088 4.23437,6.3878 4.23437,10.22266 v 14.45703 h -14.45703 c -3.83486,0 -7.51068,-1.52337 -10.22265,-4.23438 -2.710965,-2.71192 -4.234385,-6.38883 -4.234385,-10.22265 z m -5.91601,-5.91602 v 0.5293 19.84375 c 0,5.40315 2.14671,10.58422 5.96679,14.40429 3.821065,3.82106 9.003105,5.96875 14.406255,5.96875 h 20.37305 v -20.37304 c 0,-5.40316 -2.14678,-10.58521 -5.9668,-14.40625 -3.82104,-3.82002 -9.00309,-5.9668 -14.40625,-5.9668 z m 1.05859,1.05859 h 19.314455 c 5.12284,0 10.03526,2.03428 13.65821,5.65625 3.62197,3.62295 5.65625,8.53537 5.65625,13.65821 v 19.31445 h -19.31446 c -5.12283,0 -10.03526,-2.03526 -13.658205,-5.6582 -3.62191,-3.62192 -5.65625,-8.53342 -5.65625,-13.65625 z" />
  </g>
</svg>
