<?xml version="1.0" encoding="UTF-8" standalone="no"?>
<!-- Created with Inkscape (http://www.inkscape.org/) -->

<svg
   width="288.49579"
   height="83.133751"
   viewBox="0 0 76.331173 21.995806"
   version="1.1"
   id="svg5"
   inkscape:version="1.1.2 (0a00cf5339, 2022-02-04)"
   sodipodi:docname="logo (copy 1).svg"
   xmlns:inkscape="http://www.inkscape.org/namespaces/inkscape"
   xmlns:sodipodi="http://sodipodi.sourceforge.net/DTD/sodipodi-0.dtd"
   xmlns="http://www.w3.org/2000/svg"
   xmlns:svg="http://www.w3.org/2000/svg">
  <sodipodi:namedview
     id="namedview7"
     pagecolor="#ffffff"
     bordercolor="#666666"
     borderopacity="1.0"
     inkscape:pageshadow="2"
     inkscape:pageopacity="0.0"
     inkscape:pagecheckerboard="0"
     inkscape:document-units="px"
     showgrid="false"
     showborder="true"
     units="px"
     inkscape:snap-object-midpoints="true"
     inkscape:snap-center="true"
     inkscape:snap-midpoints="true"
     inkscape:snap-smooth-nodes="true"
     inkscape:snap-intersection-paths="true"
     inkscape:object-paths="true"
     inkscape:zoom="1"
     inkscape:cx="178"
     inkscape:cy="66.5"
     inkscape:window-width="1366"
     inkscape:window-height="699"
     inkscape:window-x="0"
     inkscape:window-y="0"
     inkscape:window-maximized="1"
     inkscape:current-layer="layer1"
     fit-margin-top="0"
     fit-margin-left="0"
     fit-margin-right="0"
     fit-margin-bottom="0" />
  <defs
     id="defs2" />
  <g
     inkscape:label="Layer 1"
     inkscape:groupmode="layer"
     id="layer1"
     transform="translate(-87.835424,-26.597552)">
    <g
       id="g4076"
       transform="matrix(0.72901417,0,0,0.72901417,44.486823,7.2075598)">
      <g
         id="g485"
         transform="translate(25.60916,-99.693148)"
         style="fill:#04395e;fill-opacity:1;stroke:none;stroke-width:0;stroke-miterlimit:4;stroke-dasharray:none">
        <path
           id="path206"
           style="fill:#04395e;fill-opacity:1;stroke:none;stroke-width:0;stroke-miterlimit:4;stroke-dasharray:none"
           d="m 52.133627,131.82153 v 0.91268 a 0.9126802,0.9126802 0 0 0 0.91268,0.91268 h 0.91268 v -0.91268 a 0.9126802,0.9126802 0 0 0 -0.91268,-0.91268 z" />
        <path
           id="path157"
           style="fill:#04395e;fill-opacity:1;stroke:none;stroke-width:0;stroke-miterlimit:4;stroke-dasharray:none"
           d="m 121.88144,131.82153 v 0.91268 a 0.9126802,0.9126802 0 0 0 0.91268,0.91268 h 0.91268 v -0.91268 a 0.9126802,0.9126802 0 0 0 -0.91268,-0.91268 z" />
        <path
           d="m 39.632665,131.60045 c -3.567485,0 -5.420365,1.46571 -5.420365,3.95465 0,5.06085 9.209089,2.90377 9.209089,6.36063 0,1.88054 -2.405978,2.18474 -3.53983,2.18474 -2.682528,0 -3.733414,-1.38275 -3.871689,-2.79315 h -2.157084 c 0.138275,2.43363 2.157084,4.56306 6.001118,4.56306 3.42921,0 5.641604,-1.46571 5.641604,-4.14824 0,-5.19912 -9.209089,-3.04203 -9.209089,-6.36063 0,-1.35509 1.133852,-1.99115 3.290936,-1.99115 2.323013,0 3.207971,0.96792 3.3739,2.15709 h 2.101774 c -0.248894,-2.01881 -1.769915,-3.927 -5.420364,-3.927 z"
           id="path15909"
           style="font-size:46.7474px;line-height:1.25;font-family:Questrial;-inkscape-font-specification:Questrial;fill:#04395e;fill-opacity:1;stroke:none;stroke-width:0;stroke-miterlimit:4;stroke-dasharray:none" />
        <path
           d="m 50.778684,145.64915 v -12.00224 0 -1.82522 0 -4.95024 h -2.074119 v 4.95024 0 1.82522 0 12.00224 z"
           id="path15911"
           sodipodi:nodetypes="ccccccccccccc"
           style="font-size:46.7474px;line-height:1.25;font-family:Questrial;-inkscape-font-specification:Questrial;fill:#04395e;fill-opacity:1;stroke:none;stroke-width:0;stroke-miterlimit:4;stroke-dasharray:none" />
        <path
           d="m 61.785288,131.60045 c -4.037618,0 -6.69249,3.18031 -6.69249,7.13497 0,3.95465 2.654872,7.13496 6.69249,7.13496 2.295358,0 3.926998,-0.94026 4.950231,-2.43363 v 2.2124 h 2.074118 v -13.82746 h -2.074118 v 2.24005 c -1.023233,-1.49337 -2.654873,-2.46129 -4.950231,-2.46129 z m 0.276549,12.3894 c -3.069696,0 -4.89492,-2.40598 -4.89492,-5.25443 0,-2.84846 1.825224,-5.25444 4.89492,-5.25444 3.069696,0 4.784301,2.40598 4.784301,5.25444 0,2.84845 -1.714605,5.25443 -4.784301,5.25443 z"
           id="path15913"
           style="font-size:46.7474px;line-height:1.25;font-family:Questrial;-inkscape-font-specification:Questrial;fill:#04395e;fill-opacity:1;stroke:none;stroke-width:0;stroke-miterlimit:4;stroke-dasharray:none" />
        <path
           d="M 84.268721,131.82169 H 82.001017 L 77.465611,143.1602 73.013168,131.82169 H 70.71781 l 5.641604,13.63387 -2.516598,5.66926 h 2.240049 z"
           id="path15915"
           style="font-size:46.7474px;line-height:1.25;font-family:Questrial;-inkscape-font-specification:Questrial;fill:#04395e;fill-opacity:1;stroke:none;stroke-width:0;stroke-miterlimit:4;stroke-dasharray:none" />
        <path
           d="m 91.450106,131.60045 c -4.037614,0 -6.692486,3.18031 -6.692486,7.13497 0,3.95465 2.654872,7.13496 6.692486,7.13496 2.295362,0 3.926998,-0.94026 4.950234,-2.43363 v 2.2124 h 2.074116 V 126.2907 H 96.40034 v 7.77104 c -1.023236,-1.49337 -2.654872,-2.46129 -4.950234,-2.46129 z m 0.276553,12.3894 c -3.069696,0 -4.89492,-2.40598 -4.89492,-5.25443 0,-2.84846 1.825224,-5.25444 4.89492,-5.25444 3.069695,0 4.784301,2.40598 4.784301,5.25444 0,2.84845 -1.714606,5.25443 -4.784301,5.25443 z"
           id="path15917"
           style="font-size:46.7474px;line-height:1.25;font-family:Questrial;-inkscape-font-specification:Questrial;fill:#04395e;fill-opacity:1;stroke:none;stroke-width:0;stroke-miterlimit:4;stroke-dasharray:none" />
        <path
           d="m 107.90477,131.60045 c -4.03762,0 -6.69249,3.18031 -6.69249,7.13497 0,3.95465 2.65487,7.13496 6.69249,7.13496 2.29536,0 3.927,-0.94026 4.95023,-2.43363 v 2.2124 h 2.07412 V 131.82169 H 112.855 v 2.24005 c -1.02323,-1.49337 -2.65487,-2.46129 -4.95023,-2.46129 z m 0.27655,12.3894 c -3.0697,0 -4.89492,-2.40598 -4.89492,-5.25443 0,-2.84846 1.82522,-5.25444 4.89492,-5.25444 3.06969,0 4.7843,2.40598 4.7843,5.25444 0,2.84845 -1.71461,5.25443 -4.7843,5.25443 z"
           id="path15919"
           style="font-size:46.7474px;line-height:1.25;font-family:Questrial;-inkscape-font-specification:Questrial;fill:#04395e;fill-opacity:1;stroke:none;stroke-width:0;stroke-miterlimit:4;stroke-dasharray:none" />
        <path
           d="m 120.5265,145.64915 v -12.00224 0 -1.82522 0 -4.95024 h -2.07412 v 4.95024 0 1.82522 0 12.00224 z"
           id="path15921"
           sodipodi:nodetypes="ccccccccccccc"
           style="font-size:46.7474px;line-height:1.25;font-family:Questrial;-inkscape-font-specification:Questrial;fill:#04395e;fill-opacity:1;stroke:none;stroke-width:0;stroke-miterlimit:4;stroke-dasharray:none" />
        <path
           d="m 131.86495,143.98985 c -2.79315,0 -4.59072,-1.9635 -4.89492,-4.42479 h 11.58741 v -0.82964 c 0,-3.95466 -2.62722,-7.13497 -6.85842,-7.13497 -4.23121,0 -6.85842,3.18031 -6.85842,7.13497 0,3.95465 2.76549,7.13496 6.99669,7.13496 3.29093,0 5.3374,-1.7146 6.30532,-4.20354 h -2.2677 c -0.74669,1.38274 -2.07412,2.32301 -4.00996,2.32301 z m -0.16593,-10.50887 c 2.65487,0 4.31416,1.79757 4.70133,4.14824 h -9.40267 c 0.38717,-2.35067 2.04647,-4.14824 4.70134,-4.14824 z"
           id="path15923"
           style="font-size:46.7474px;line-height:1.25;font-family:Questrial;-inkscape-font-specification:Questrial;fill:#04395e;fill-opacity:1;stroke:none;stroke-width:0;stroke-miterlimit:4;stroke-dasharray:none" />
      </g>
      <g
         aria-label="AFRICA"
         id="text503"
         style="font-size:8.28913px;line-height:1.25;font-family:Questrial;-inkscape-font-specification:Questrial;letter-spacing:1.10067px;stroke-width:0.086345"
         transform="translate(1e-5)">
        <path
           d="m 132.78463,51.21582 h -0.77918 l -2.32925,5.487404 h 0.688 l 0.67142,-1.591513 h 2.71884 l 0.67142,1.591513 h 0.68799 z m -1.50862,3.323941 1.11903,-2.677389 1.11903,2.677389 z"
           id="path4027" />
        <path
           d="M 140.87302,51.812637 V 51.21582 h -3.9622 v 5.487404 h 0.62168 v -2.37898 h 2.9758 v -0.605107 h -2.9758 v -1.9065 z"
           id="path4029" />
        <path
           d="m 143.46572,54.597785 h 1.9065 l 1.32626,2.105439 h 0.73774 l -1.44231,-2.213198 c 0.61339,-0.140915 1.32626,-0.497347 1.32626,-1.558356 0,-1.04443 -0.72116,-1.71585 -1.84848,-1.71585 h -2.62765 v 5.487404 h 0.62168 z m 0,-2.793437 h 1.93137 c 0.77918,0 1.30139,0.431035 1.30139,1.127322 0,0.85378 -0.74602,1.077587 -1.33455,1.077587 h -1.89821 z"
           id="path4031" />
        <path
           d="m 150.11181,51.21582 h -0.62168 v 5.487404 h 0.62168 z"
           id="path4033" />
        <path
           d="m 154.90943,56.164431 c -1.33455,0 -2.08057,-0.969829 -2.08057,-2.204909 0,-1.23508 0.74602,-2.204909 2.08057,-2.204909 0.90351,0 1.50033,0.431035 1.78216,1.102455 h 0.65484 c -0.34814,-1.002985 -1.24337,-1.707561 -2.48674,-1.707561 -1.64953,0 -2.65252,1.251659 -2.65252,2.810015 0,1.558357 1.00299,2.810015 2.65252,2.810015 1.24337,0 2.1386,-0.704576 2.48674,-1.707561 h -0.65484 c -0.28183,0.67142 -0.87865,1.102455 -1.78216,1.102455 z"
           id="path4035" />
        <path
           d="m 161.83735,51.21582 h -0.77918 l -2.32925,5.487404 h 0.688 l 0.67142,-1.591513 h 2.71884 l 0.67141,1.591513 h 0.688 z m -1.50862,3.323941 1.11903,-2.677389 1.11903,2.677389 z"
           id="path4037" />
      </g>
    </g>
  </g>
</svg>
