<?xml version="1.0" encoding="UTF-8" standalone="no"?>
<!-- Created with Inkscape (http://www.inkscape.org/) -->

<svg
   width="365.46243"
   height="75.72699"
   viewBox="0 0 96.695266 20.0361"
   version="1.1"
   id="svg5"
   inkscape:version="1.1.2 (0a00cf5339, 2022-02-04)"
   sodipodi:docname="logo.svg"
   xmlns:inkscape="http://www.inkscape.org/namespaces/inkscape"
   xmlns:sodipodi="http://sodipodi.sourceforge.net/DTD/sodipodi-0.dtd"
   xmlns="http://www.w3.org/2000/svg"
   xmlns:svg="http://www.w3.org/2000/svg">
  <sodipodi:namedview
     id="namedview7"
     pagecolor="#ffffff"
     bordercolor="#666666"
     borderopacity="1.0"
     inkscape:pageshadow="2"
     inkscape:pageopacity="0.0"
     inkscape:pagecheckerboard="0"
     inkscape:document-units="px"
     showgrid="false"
     showborder="true"
     units="px"
     inkscape:snap-bbox="true"
     inkscape:snap-bbox-midpoints="true"
     inkscape:snap-bbox-edge-midpoints="true"
     inkscape:bbox-nodes="true"
     inkscape:bbox-paths="true"
     inkscape:zoom="0.5"
     inkscape:cx="182"
     inkscape:cy="39"
     inkscape:window-width="1366"
     inkscape:window-height="699"
     inkscape:window-x="0"
     inkscape:window-y="0"
     inkscape:window-maximized="1"
     inkscape:current-layer="layer1"
     fit-margin-top="0"
     fit-margin-left="0"
     fit-margin-right="0"
     fit-margin-bottom="0" />
  <defs
     id="defs2" />
  <g
     inkscape:label="Layer 1"
     inkscape:groupmode="layer"
     id="layer1"
     transform="translate(-122.42974,-126.04967)">
    <g
       id="g7605"
       style="fill:#008dd5;stroke-width:0;stroke-miterlimit:4;stroke-dasharray:none;stroke:none;fill-opacity:1">
      <path
         d="m 126.97634,145.32827 c 2.6924,0.254 5.2832,-1.524 5.2832,-4.064 0.0762,-2.1844 -1.9812,-3.5052 -4.1656,-4.2164 -0.5588,-0.1778 -1.8796,-0.2032 -1.8796,-0.9398 0,-0.7874 0.6604,-0.9906 1.5494,-0.9144 0.6604,0.0762 1.1938,0.5334 1.4986,0.9144 l 2.9972,-1.778 c -1.0922,-1.524 -2.8448,-2.3622 -4.826,-2.3622 -2.5146,0 -4.7752,1.6256 -4.7752,4.2418 0,2.3368 2.2606,3.81 4.5212,4.1656 0.635,0.1016 1.5748,0.2286 1.5748,0.9398 0,0.635 -0.6858,0.8128 -1.3462,0.8128 -0.9906,0 -1.524,-0.6096 -1.778,-0.889 l -3.2004,1.3716 c 0.8128,1.651 2.6162,2.54 4.5466,2.7178 z"
         id="path6210"
         style="font-weight:900;font-size:25.4px;line-height:1.25;font-family:Urbanist;-inkscape-font-specification:'Urbanist Heavy';stroke-width:0;fill:#008dd5;stroke-miterlimit:4;stroke-dasharray:none;stroke:none;fill-opacity:1" />
      <path
         d="m 140.34516,136.20967 v -3.81 h -2.159 v -3.9878 h -3.81 v 3.9878 0 3.81 0 8.89 h 3.81 v -8.89 z"
         id="path6212"
         style="font-weight:900;font-size:25.4px;line-height:1.25;font-family:Urbanist;-inkscape-font-specification:'Urbanist Heavy';stroke-width:0;fill:#008dd5;stroke-miterlimit:4;stroke-dasharray:none;stroke:none;fill-opacity:1"
         sodipodi:nodetypes="ccccccccccccc" />
      <path
         d="m 151.24174,132.39967 0.1778,1.2192 c -0.9398,-0.889 -2.1209,-1.5748 -3.5814,-1.5748 -3.5941,0 -6.4897,2.921 -6.477,6.5278 -0.0127,3.7846 3.048,6.858 6.8326,6.858 1.27,0 2.2225,-0.5842 2.8575,-1.4732 l 0.1778,1.143 h 3.8227 v -12.7 z m -3.1496,9.3726 c -1.5494,0 -2.8194,-1.3462 -2.8194,-3.0226 0,-1.6764 1.2319,-3.0226 2.8194,-3.0226 1.5748,0 2.8448,1.3462 2.8448,3.0226 0,1.6764 -1.27,3.0226 -2.8448,3.0226 z"
         id="path6214"
         style="font-weight:900;font-size:25.4px;line-height:1.25;font-family:Urbanist;-inkscape-font-specification:'Urbanist Heavy';stroke-width:0;fill:#008dd5;stroke-miterlimit:4;stroke-dasharray:none;stroke:none;fill-opacity:1" />
      <path
         d="m 177.42485,126.04967 v 7.5184 c -0.7874,-0.889 -1.8542,-1.4986 -3.2258,-1.4986 -3.683,0 -6.6802,2.9972 -6.6802,6.6802 0,3.683 2.9972,6.6802 6.6802,6.6802 1.3716,0 2.4384,-0.6096 3.2258,-1.4986 v 1.1684 h 3.81 v -19.05 z m -3.175,15.7226 c -1.5494,0 -2.8194,-1.3462 -2.8194,-3.0226 0,-1.6764 1.2319,-3.0226 2.8194,-3.0226 1.5748,0 2.8448,1.3462 2.8448,3.0226 0,1.6764 -1.27,3.0226 -2.8448,3.0226 z"
         id="path6218"
         style="font-weight:900;font-size:25.4px;line-height:1.25;font-family:Urbanist;-inkscape-font-specification:'Urbanist Heavy';stroke-width:0;fill:#008dd5;stroke-miterlimit:4;stroke-dasharray:none;stroke:none;fill-opacity:1" />
      <path
         d="m 193.14742,132.39967 0.1778,1.2192 c -0.9398,-0.889 -2.1209,-1.5748 -3.5814,-1.5748 -3.5941,0 -6.4897,2.921 -6.477,6.5278 -0.0127,3.7846 3.048,6.858 6.8326,6.858 1.27,0 2.2225,-0.5842 2.8575,-1.4732 l 0.1778,1.143 h 3.8227 v -12.7 z m -3.1496,9.3726 c -1.5494,0 -2.8194,-1.3462 -2.8194,-3.0226 0,-1.6764 1.2319,-3.0226 2.8194,-3.0226 1.5748,0 2.8448,1.3462 2.8448,3.0226 0,1.6764 -1.27,3.0226 -2.8448,3.0226 z"
         id="path6220"
         style="font-weight:900;font-size:25.4px;line-height:1.25;font-family:Urbanist;-inkscape-font-specification:'Urbanist Heavy';stroke-width:0;fill:#008dd5;stroke-miterlimit:4;stroke-dasharray:none;stroke:none;fill-opacity:1" />
      <path
         d="m 205.4029,136.20967 v -3.81 h -2.159 v -3.9878 h -3.81 v 3.9878 0 3.81 0 8.89 h 3.81 v -8.89 z"
         id="path6222"
         style="font-weight:900;font-size:25.4px;line-height:1.25;font-family:Urbanist;-inkscape-font-specification:'Urbanist Heavy';stroke-width:0;fill:#008dd5;stroke-miterlimit:4;stroke-dasharray:none;stroke:none;fill-opacity:1"
         sodipodi:nodetypes="ccccccccccccc" />
      <path
         d="m 212.76889,145.42987 c 2.54,0 4.7244,-1.5748 5.7531,-3.8354 l -3.8862,-0.9017 c -0.4699,0.5715 -1.1303,0.9398 -1.8669,0.9271 -1.1811,-0.0254 -1.8796,-0.7112 -2.2352,-1.6129 h 8.4709 c 0.762,-4.0386 -2.1844,-7.9629 -6.2357,-7.9629 -3.5052,0 -6.35,2.9972 -6.35,6.6929 0,3.6957 2.8448,6.6929 6.35,6.6929 z m -2.3749,-8.2169 c 0.3683,-1.0922 1.2954,-1.8669 2.3749,-1.8669 1.0922,0 2.0193,0.7747 2.3876,1.8669 z"
         id="path6224"
         style="font-weight:900;font-size:25.4px;line-height:1.25;font-family:Urbanist;-inkscape-font-specification:'Urbanist Heavy';stroke-width:0;fill:#008dd5;stroke-miterlimit:4;stroke-dasharray:none;stroke:none;fill-opacity:1" />
      <g
         id="g7374"
         style="fill:#008dd5;stroke-width:0;stroke-miterlimit:4;stroke-dasharray:none;stroke:none;fill-opacity:1">
        <path
           style="font-weight:900;font-size:25.4px;line-height:1.25;font-family:Urbanist;-inkscape-font-specification:'Urbanist Heavy';stroke-width:0;fill:#008dd5;stroke-miterlimit:4;stroke-dasharray:none;stroke:none;fill-opacity:1"
           d="m 162.44507,132.83241 -3.287,12.26726 3.68018,0.9861 3.287,-12.26726 z"
           id="path7131" />
        <path
           id="path7173"
           style="fill:#008dd5;stroke-width:0;stroke-linecap:square;stroke-miterlimit:4;stroke-dasharray:none;stroke:none;fill-opacity:1"
           d="m 161.06307,134.73741 a 1.905,1.905 0 0 1 -1.905,1.905 1.905,1.905 0 0 1 -1.905,-1.905 1.905,1.905 0 0 1 1.905,-1.905 1.905,1.905 0 0 1 1.905,1.905 z" />
      </g>
    </g>
  </g>
</svg>
